<svg width="250" height="102" viewBox="0 0 250 102" fill="none" xmlns="http://www.w3.org/2000/svg">
<path d="M47.7658 0.917155C46.7135 1.0953 45.7109 1.61317 44.9445 2.38375C44.2443 3.0839 43.8176 3.83792 43.5483 4.84879L43.4365 5.26308L43.4199 7.58312C43.4075 9.60072 43.4158 9.95701 43.4738 10.3174C43.5318 10.653 43.6726 11.1543 43.8093 11.5106C43.8218 11.5479 43.2915 11.5603 41.539 11.5603C39.4758 11.5603 39.2148 11.5686 38.9041 11.6349C38.494 11.726 37.9637 11.9042 37.6571 12.0533C37.5328 12.1113 37.4292 12.1569 37.4251 12.1486C37.4209 12.1445 37.3754 12.0285 37.3215 11.8918C36.7125 10.3257 35.3868 8.91714 33.8415 8.18798C33.1123 7.84826 32.3956 7.6494 31.5753 7.55826C31.306 7.5334 29.5825 7.52097 26.4671 7.5334C21.8477 7.54583 21.7566 7.54997 21.3588 7.63697C20.2278 7.88141 19.3495 8.27084 18.5085 8.89228C17.1703 9.88658 16.2092 11.3863 15.8612 13.0393C15.7037 13.7726 15.6872 14.3982 15.7037 18.9969L15.7162 23.4091H10.9932C6.3076 23.4091 6.26617 23.4091 5.76902 23.5002C4.22785 23.7819 2.94769 24.4697 1.8871 25.5841C1.00466 26.5121 0.399792 27.6721 0.105644 29.0145C0.022786 29.408 0.0186431 29.5033 0.00621431 34.2428C-0.0103574 39.5002 -0.0103574 39.4878 0.225789 40.3619C0.975658 43.1584 3.33712 45.1636 6.23717 45.4701C6.50232 45.4991 8.24649 45.5116 11.2128 45.5033C15.7659 45.4909 15.7825 45.4909 15.7535 45.5737C15.7369 45.6193 15.7162 47.6617 15.7079 50.1102C15.6872 54.7627 15.7037 55.322 15.8653 56.0553C16.3956 58.4955 18.1439 60.4468 20.4847 61.2091C21.5204 61.5447 21.102 61.524 26.7571 61.524C32.3832 61.524 32.0103 61.5405 32.9922 61.2257C35.6188 60.3805 37.4582 58.1185 37.7772 55.351C37.8311 54.8539 37.8311 46.2076 37.7772 45.698C37.5991 44.1278 36.9528 42.7275 35.8964 41.6297C34.9103 40.6022 33.8373 39.9849 32.4702 39.6493C31.7079 39.467 31.4427 39.4588 26.6121 39.4712L22.0548 39.4836V29.6235L26.3428 29.6359C30.8213 29.6483 31.538 29.6317 32.2754 29.4785C33.4437 29.234 34.5416 28.6913 35.4448 27.9083C36.2609 27.1999 37.0025 26.131 37.3464 25.1781C37.4085 25.0041 37.4665 24.8508 37.4748 24.8425C37.4789 24.8342 37.6778 24.9047 37.914 24.9958C38.1501 25.0911 38.5105 25.2113 38.7135 25.261C39.0781 25.3563 39.1195 25.3563 41.5887 25.3563C44.0538 25.3563 44.1035 25.3563 44.4598 25.261C44.6628 25.2113 44.8409 25.1698 44.8534 25.1698C44.8699 25.1698 44.8782 26.1807 44.8699 27.4153C44.8575 29.35 44.8658 29.7229 44.9279 30.0792C45.1061 31.1563 45.6074 32.1341 46.3945 32.9171C46.9952 33.5178 47.625 33.9114 48.437 34.1807C49.191 34.4334 49.4023 34.45 51.7596 34.45C54.2826 34.45 54.4939 34.4251 55.4137 34.0688C56.7891 33.5385 57.9533 32.3081 58.4256 30.8871C58.67 30.1496 58.67 30.133 58.6866 27.7591C58.7031 25.4723 58.6907 25.1698 58.5291 24.5277C58.09 22.8001 56.7435 21.3915 55.0118 20.8446C54.3075 20.6209 54.0755 20.6043 51.569 20.625C49.394 20.6375 49.2573 20.6416 48.9424 20.7245C48.7601 20.7742 48.582 20.8239 48.5488 20.8363C48.495 20.8612 48.4867 20.5753 48.4867 18.45V16.0347L48.3748 15.5997C48.3168 15.3594 48.2257 15.0652 48.1801 14.9451C48.1304 14.8249 48.0931 14.7172 48.0931 14.7089C48.0931 14.6965 49.0791 14.6882 50.2806 14.6882C52.6503 14.6882 52.8782 14.6717 53.5783 14.4521C55.0532 13.9881 56.2878 12.8529 56.8595 11.436C57.0211 11.0383 57.1454 10.5619 57.2034 10.1186C57.2655 9.68772 57.2655 5.85138 57.2034 5.42051C56.9258 3.36148 55.5007 1.67117 53.5535 1.08287C52.8326 0.863297 52.6503 0.850869 50.293 0.855011C48.6276 0.859154 48.031 0.871583 47.7658 0.917155ZM52.4515 4.04506C53.2303 4.20664 53.9098 4.90679 54.0589 5.69394C54.1128 5.98809 54.1128 9.551 54.0589 9.84515C53.9098 10.6323 53.2303 11.3325 52.4515 11.494C52.3106 11.523 51.5442 11.5396 50.2971 11.5396C48.1884 11.5396 48.0931 11.5313 47.6623 11.2993C47.393 11.1585 46.9414 10.7069 46.8005 10.4376C46.5685 10.0067 46.5602 9.91558 46.5602 7.76955C46.5602 6.13309 46.5727 5.75609 46.6224 5.55308C46.8047 4.85707 47.4012 4.25635 48.089 4.07406C48.3293 4.01192 48.6068 4.00363 50.2971 4.00363C51.5566 3.99949 52.3106 4.01606 52.4515 4.04506ZM31.8321 10.7856C33.1703 11.1667 34.2226 12.2356 34.554 13.5489L34.6493 13.9218V23.2434L34.554 23.5955C34.4546 23.9808 34.2102 24.5235 33.9989 24.8301C33.5805 25.4433 32.843 26.0108 32.1594 26.247C31.5546 26.4583 31.6664 26.4541 26.7736 26.4541C21.74 26.4541 21.9057 26.4624 21.247 26.2014C20.7913 26.0191 20.4018 25.7581 19.9958 25.3604C19.4448 24.8177 19.1009 24.1921 18.9477 23.4712C18.8524 23.0196 18.8565 14.1289 18.9518 13.6608C19.0844 13.0103 19.4034 12.4055 19.8964 11.8835C20.4681 11.2745 21.189 10.8809 21.9886 10.7317C22.2454 10.6862 23.1237 10.6779 26.9021 10.682L31.5007 10.6903L31.8321 10.7856ZM43.714 14.7504C44.4681 14.9078 45.0936 15.5168 45.2966 16.2833C45.3464 16.4863 45.3588 16.855 45.3546 18.479C45.3546 20.654 45.3422 20.7535 45.0688 21.2092C44.8948 21.495 44.5136 21.8596 44.2485 21.9963C43.7969 22.2242 43.7638 22.2283 41.5929 22.2283C40.0434 22.2283 39.5297 22.2159 39.3723 22.1703C38.6638 21.9839 38.0672 21.3832 37.8808 20.6747C37.7897 20.3267 37.7897 16.6064 37.8808 16.2667C38.0755 15.5334 38.6845 14.9327 39.4178 14.7545C39.7741 14.6675 43.308 14.6634 43.714 14.7504ZM53.9015 23.8068C54.6804 23.9684 55.3598 24.6685 55.5089 25.4557C55.5628 25.7498 55.5628 29.3127 55.5089 29.6069C55.3598 30.3899 54.6804 31.0901 53.9015 31.2558C53.7565 31.2848 53.0315 31.3013 51.7472 31.2972C50.0569 31.2972 49.7793 31.2889 49.539 31.2268C48.8513 31.0445 48.2547 30.4438 48.0724 29.7477C47.9813 29.3915 47.9813 25.6794 48.0724 25.3231C48.1677 24.9502 48.3334 24.6727 48.6276 24.3827C48.9258 24.0844 49.2034 23.9187 49.5473 23.8275C49.8331 23.7488 53.5452 23.7322 53.9015 23.8068ZM16.1926 26.6944C16.7602 26.8684 17.2822 27.1791 17.7172 27.5934C18.3759 28.2232 18.7364 28.8694 18.8814 29.7022C18.9104 29.8638 18.9269 31.4919 18.9269 34.4665C18.9269 38.7379 18.9228 39.0072 18.8482 39.3676C18.5665 40.7348 17.4935 41.8534 16.089 42.2469L15.7576 42.3422L11.304 42.3547C8.10563 42.3629 6.73846 42.3547 6.46089 42.3215C4.94872 42.1351 3.75142 41.1118 3.27912 39.6079L3.16312 39.235L3.15069 34.6074C3.14241 30.1952 3.14241 29.959 3.21698 29.5945C3.53184 28.0699 4.76229 26.8726 6.29103 26.6074C6.34903 26.595 8.5282 26.5908 11.1382 26.595L15.8819 26.5991L16.1926 26.6944ZM31.5421 42.6737C32.9922 42.9264 34.1853 44.045 34.554 45.4909L34.6493 45.8637V55.1853L34.554 55.5374C34.4546 55.9227 34.2102 56.4655 34.003 56.7637C33.6136 57.3313 32.8927 57.903 32.2713 58.1433C31.5836 58.4085 31.77 58.4002 26.6121 58.3878L21.9306 58.3753L21.6281 58.2801C20.2568 57.8575 19.2294 56.7596 18.9477 55.4049C18.8524 54.9574 18.8565 46.0667 18.9518 45.6027C19.0844 44.9481 19.4075 44.3433 19.9088 43.813C20.522 43.1667 21.2511 42.7772 22.0673 42.6571C22.1957 42.6364 24.3003 42.6198 26.7405 42.6157C30.5396 42.6115 31.2314 42.6198 31.5421 42.6737Z" fill="white"/>
<path d="M124.571 33.4971H129.874V28.8984H124.571V33.4971Z" fill="white"/>
<path d="M188.207 60.1775H192.515V29.1885H188.207V60.1775Z" fill="white"/>
<path d="M226.404 60.1775H230.332L230.357 59.9786C230.423 59.4608 230.634 56.9585 230.672 56.2624C230.692 55.8274 230.713 54.9616 230.717 54.336V53.1967L230.8 53.4867C231.438 55.7694 232.466 57.5882 233.742 58.7151C235.113 59.9206 236.542 60.4758 238.556 60.5918C241.58 60.7575 244.339 59.6762 246.39 57.5219C248.002 55.8274 249.012 53.64 249.381 51.0631C249.485 50.3298 249.505 48.395 249.423 47.583C249.037 43.9414 247.301 40.9378 244.53 39.1356C242.868 38.0543 240.921 37.5406 238.75 37.611C237.151 37.6649 235.954 37.9259 234.856 38.452C232.83 39.4256 231.591 41.0952 230.8 43.9165L230.717 44.2065L230.713 29.1884H226.404V60.1775ZM238.879 41.3686C240.577 41.5426 241.874 42.1268 242.935 43.1874C243.49 43.7425 243.867 44.2604 244.215 44.9316C244.778 46.0253 245.039 47.0362 245.13 48.4779C245.234 50.1226 244.965 51.6555 244.356 52.9191C242.926 55.8689 240.089 57.2857 236.596 56.7969C233.961 56.424 232.039 54.7917 231.173 52.1941C230.846 51.2205 230.713 50.3091 230.713 49.0869C230.713 45.6483 232.051 43.1708 234.537 42.0108C235.734 41.4556 237.35 41.2153 238.879 41.3686Z" fill="white"/>
<path d="M56.2132 37.6234C55.7451 37.6566 54.8544 37.7726 54.4525 37.8513C50.1894 38.6882 47.0035 41.5095 45.8228 45.4908C45.1765 47.67 45.1599 50.3961 45.7814 52.6167C46.5768 55.4753 48.5613 57.8823 51.2417 59.2453C53.1351 60.2065 55.0367 60.6415 57.3525 60.6457C58.3966 60.6457 58.9973 60.6001 59.8797 60.4468C63.5006 59.8212 66.2598 57.613 67.3328 54.4727C67.5069 53.959 67.6891 53.2381 67.6891 53.0517C67.6891 52.9688 67.6684 52.9688 65.6715 52.9688H63.6498L63.5255 53.3085C62.9413 54.8994 61.4582 56.163 59.5897 56.656C58.8274 56.859 58.3178 56.917 57.3525 56.917C55.828 56.917 54.8047 56.6974 53.6239 56.1133C52.8741 55.7446 52.3686 55.3841 51.7803 54.7917C51.1962 54.2076 50.8357 53.7063 50.4546 52.9481C50.0444 52.132 49.7751 51.2454 49.6426 50.3049L49.6177 50.1102H67.8424L67.8714 49.4142C67.9004 48.7265 67.8507 47.4836 67.7679 46.7752C67.4406 43.9621 66.4711 41.8119 64.8181 40.2252C63.3515 38.8207 61.4416 37.9922 58.989 37.7022C58.4546 37.64 56.698 37.5903 56.2132 37.6234ZM58.0693 41.3314C58.9517 41.4266 59.6104 41.6131 60.3355 41.9652C61.5535 42.5618 62.3406 43.32 62.8833 44.4137C63.2148 45.0766 63.3888 45.7063 63.4841 46.5763L63.5131 46.8373H49.8746V46.7503C49.8746 46.5639 50.177 45.756 50.4546 45.2008C50.8274 44.451 51.192 43.9497 51.7803 43.3572C52.9362 42.2014 54.2868 41.5592 56.0061 41.3479C56.553 41.2816 57.5431 41.2734 58.0693 41.3314Z" fill="white"/>
<path d="M84.178 37.6442C82.5747 37.8057 81.0749 38.4106 79.8072 39.4008C79.3639 39.7488 78.585 40.5525 78.2246 41.0372C77.5783 41.9031 77.106 42.8104 76.758 43.8544L76.642 44.2066L76.6379 41.1284V38.0543H72.3292V60.1775H76.6379V46.8746L76.787 46.4727C77.6322 44.1983 79.6166 42.3878 81.945 41.7622C83.2003 41.4267 84.903 41.4267 86.0672 41.7664C87.4426 42.1641 88.3996 43.117 88.7973 44.4966C89.0584 45.3997 89.0418 44.828 89.0542 52.8528L89.0666 60.1775H93.3753V52.6457C93.3753 47.6369 93.3587 44.9606 93.3297 44.6581C93.1267 42.537 92.2153 40.6395 90.844 39.4795C89.7254 38.5308 88.4203 37.9673 86.7673 37.7187C86.1334 37.6235 84.7704 37.582 84.178 37.6442Z" fill="white"/>
<path d="M106.86 37.64C104.536 37.8472 102.515 38.6509 100.907 39.9973C99.8341 40.8964 98.9185 42.1931 98.4048 43.5271C97.7419 45.2754 97.5928 47.6203 98.0195 49.6131C98.4876 51.7757 99.7968 53.6773 101.703 54.9616C102.187 55.2889 103.124 55.7653 103.65 55.9559L104.043 56.0967L103.368 56.1465C102.995 56.1713 102.548 56.2169 102.374 56.2417C100.592 56.5027 99.2665 57.2526 98.7611 58.2883C98.2722 59.2826 98.2722 60.6084 98.7569 61.6027C99.4239 62.9698 101.002 63.699 103.629 63.8647C103.994 63.8854 105.705 63.9061 107.428 63.9061C110.813 63.9061 111.074 63.9186 111.911 64.134C112.387 64.2542 113.054 64.5607 113.415 64.83C113.763 65.091 114.069 65.4722 114.285 65.9155C114.604 66.5825 114.711 67.2039 114.711 68.3888V69.1262H119.02V67.9911C119.02 66.6695 118.974 65.9817 118.834 65.2899C118.585 64.0594 118.109 63.1563 117.276 62.3318C116.319 61.379 115.109 60.8072 113.303 60.4509C112.118 60.2148 111.965 60.2065 107.896 60.1775C103.824 60.1485 103.977 60.1568 103.496 59.9248C103.244 59.8005 102.962 59.5188 102.85 59.2744C102.722 59.0009 102.722 58.3795 102.85 58.0978C102.983 57.8119 103.248 57.5468 103.567 57.3852C104.246 57.0455 105.961 56.7969 108.248 56.7016C108.783 56.6767 109.437 56.627 109.698 56.5939C113.083 56.1216 115.701 54.3774 117.048 51.6928C117.429 50.9305 117.744 49.8948 117.881 48.9461C117.984 48.2376 118.009 46.8912 117.926 46.278C117.736 44.8156 117.143 43.4484 116.207 42.3049C115.863 41.8865 115.088 41.1491 114.637 40.8135C114.43 40.6561 114.26 40.5193 114.268 40.5111C114.276 40.5069 114.533 40.6022 114.84 40.7224C117.114 41.6338 118.776 42.0315 120.337 42.0315H120.76V38.0543H111.074L110.577 37.93C109.761 37.7229 109.077 37.64 108.103 37.6193C107.627 37.611 107.068 37.6193 106.86 37.64ZM109.222 41.4101C111.53 41.8989 113.129 43.4898 113.601 45.7601C113.659 46.046 113.688 46.3899 113.705 47.0237C113.738 48.3785 113.601 49.1118 113.137 50.0481C112.598 51.1335 111.778 51.958 110.697 52.4965C109.263 53.2133 107.399 53.321 105.779 52.7824C103.84 52.1402 102.515 50.6529 102.113 48.6602C102.005 48.1299 101.964 46.9989 102.034 46.3774C102.129 45.5074 102.382 44.683 102.747 44.0781C103.654 42.5577 105.183 41.5841 107.047 41.3272C107.515 41.2651 108.754 41.3106 109.222 41.4101Z" fill="white"/>
<path d="M147.192 37.6442C145.013 37.8679 143.065 38.8746 141.657 40.5111C140.803 41.5012 140.182 42.5991 139.768 43.8337L139.631 44.248L139.619 41.1491L139.61 38.0543H135.343V60.1775H139.61L139.631 46.858L139.788 46.4644C141.064 43.2785 144.027 41.3396 147.358 41.5136C148.663 41.5799 149.566 41.8368 150.324 42.3547C150.601 42.5411 151.049 42.9927 151.248 43.2868C151.567 43.755 151.84 44.4924 151.989 45.2837C152.051 45.6234 152.06 46.3029 152.068 52.915L152.08 60.1775H156.393L156.377 52.4178C156.364 43.7798 156.385 44.4178 156.078 43.2081C155.842 42.2925 155.527 41.5675 155.03 40.8259C153.862 39.0859 152.093 38.0543 149.657 37.698C149.135 37.6234 147.714 37.5903 147.192 37.6442Z" fill="white"/>
<path d="M171.486 37.64C168.975 37.8513 166.883 38.6136 165.081 39.9683C163.25 41.3479 161.895 43.3324 161.261 45.5654C160.979 46.5514 160.83 47.5623 160.793 48.743C160.731 50.8974 161.095 52.7202 161.941 54.4396C163.242 57.0869 165.47 58.9843 168.445 59.9704C169.638 60.3681 170.666 60.5545 172.062 60.6332C174.432 60.7658 176.718 60.3308 178.471 59.4069C180.215 58.4831 181.52 57.1822 182.345 55.5374C182.705 54.8207 183.036 53.8223 183.132 53.1635L183.161 52.9688H179.101L179.03 53.1843C178.918 53.5198 178.537 54.2407 178.309 54.5431C177.849 55.1563 177.033 55.8192 176.275 56.2003C174.999 56.8425 173.164 57.0827 171.428 56.8383C170.566 56.714 169.932 56.5276 169.191 56.1754C167.02 55.1397 165.599 53.1884 165.151 50.6322C165.118 50.4292 165.089 50.2304 165.089 50.1889C165.089 50.1102 165.33 50.1102 174.204 50.1102H183.318V48.9378C183.318 46.8912 183.128 45.5157 182.635 44.0408C181.4 40.3453 178.624 38.1952 174.452 37.7022C173.798 37.6234 172.087 37.5903 171.486 37.64ZM173.533 41.3314C175.086 41.5012 176.358 42.0771 177.356 43.0672C178.011 43.7094 178.388 44.3308 178.67 45.2216C178.794 45.6193 178.91 46.2283 178.935 46.6094L178.947 46.8166L172.12 46.829C165.628 46.8373 165.292 46.8332 165.313 46.7669C165.466 46.22 165.537 46.0253 165.694 45.6483C166.581 43.5271 168.362 42.0191 170.591 41.4971C171.411 41.3065 172.663 41.2361 173.533 41.3314Z" fill="white"/>
<path d="M207.409 37.6234C206.622 37.7022 206.349 37.7394 205.897 37.8306C203.668 38.2863 201.481 39.6203 200.043 41.4101C198.228 43.6638 197.367 46.3899 197.458 49.5509C197.52 51.6224 197.934 53.3251 198.775 54.9533C200.408 58.1185 203.299 60.1775 206.643 60.5504C207.181 60.6125 208.437 60.6125 208.963 60.5545C211.349 60.2811 213.213 59.1501 214.535 57.1698C215.098 56.3329 215.774 54.8 216.097 53.6524L216.234 53.1553L216.258 55.0403C216.283 56.9129 216.321 57.4846 216.524 59.4484C216.557 59.7632 216.586 60.0574 216.586 60.0988C216.586 60.1734 216.652 60.1775 218.574 60.1775H220.563V38.0543H216.254L216.246 41.1698L216.234 44.2894L216.093 43.7508C215.654 42.0439 214.982 40.7803 213.955 39.7156C213.073 38.8 212.161 38.2656 210.893 37.93C210.144 37.727 209.431 37.64 208.445 37.6234C207.968 37.6152 207.5 37.6152 207.409 37.6234ZM209.941 41.3728C211.618 41.5344 212.952 42.1144 214.03 43.146C215.214 44.2811 215.886 45.7146 216.159 47.67C216.242 48.2873 216.254 49.8658 216.176 50.4002C215.894 52.3805 215.235 53.8264 214.104 54.9616C213.027 56.0387 211.821 56.6063 210.144 56.8259C209.497 56.9087 208.279 56.888 207.658 56.7845C206.166 56.5276 204.986 55.9186 203.925 54.858C202.786 53.7146 202.144 52.4054 201.849 50.6281C201.742 49.9818 201.742 48.2625 201.849 47.583C202.148 45.698 202.889 44.2065 204.116 43.0548C205.114 42.1185 206.452 41.5344 207.973 41.3728C208.478 41.3231 209.419 41.3189 209.941 41.3728Z" fill="white"/>
<path d="M125.069 60.1775H129.336V38.0543H125.069V60.1775Z" fill="white"/>
<path d="M105.386 74.0024C104.942 74.6073 104.578 75.121 104.569 75.1417C104.561 75.1583 104.835 75.1749 105.174 75.1749H105.792L106.902 74.0356L108.008 72.8963H106.185L105.386 74.0024Z" fill="white"/>
<path d="M115.498 75.1749H117.239L117.23 74.4374L117.218 73.7041L116.36 73.6917L115.498 73.6834V75.1749Z" fill="white"/>
<path d="M217.414 75.1749H219.113V73.6834H217.414V75.1749Z" fill="white"/>
<path d="M64.872 83.7922H66.148L66.1729 83.5312C66.2267 83.0257 66.2806 82.2345 66.2806 81.9279V81.6172L66.4007 81.9569C66.67 82.7192 67.1216 83.3199 67.6519 83.6182C68.1532 83.904 69.0439 84.0035 69.7316 83.8502C70.1045 83.7673 70.7011 83.4815 71.0118 83.237C71.5338 82.8186 72.0268 82.0397 72.2091 81.3271C72.3209 80.9004 72.3582 80.0387 72.2878 79.5623C72.0517 77.9465 70.9869 76.7865 69.512 76.5421C68.8367 76.4302 67.917 76.5752 67.4199 76.8776C66.9559 77.1552 66.5747 77.6772 66.38 78.3028L66.3013 78.5472L66.2598 73.787L65.568 73.7746L64.872 73.7663V83.7922ZM69.0978 77.7435C69.9636 77.8802 70.6679 78.5887 70.8626 79.525C70.9621 80.0056 70.9248 80.7803 70.7839 81.1822C70.5229 81.9196 69.9471 82.4706 69.2428 82.657C68.961 82.7316 68.2236 82.7316 67.9253 82.6529C67.1216 82.4457 66.5209 81.7994 66.3427 80.9501C66.264 80.5814 66.264 79.8357 66.3427 79.4628C66.6079 78.2075 67.6974 77.5281 69.0978 77.7435Z" fill="white"/>
<path d="M136.574 73.7953C136.557 73.8077 136.545 74.8849 136.54 76.1858V78.5514L136.441 78.2738C136.126 77.3706 135.571 76.8321 134.722 76.6001C134.34 76.4965 133.359 76.4965 132.982 76.6001C132.348 76.7741 131.735 77.1676 131.324 77.6731C131.059 77.9962 130.736 78.6467 130.612 79.1107C130.533 79.4172 130.521 79.5622 130.521 80.2085C130.521 80.7761 130.537 81.0206 130.591 81.2401C130.914 82.512 131.697 83.3944 132.857 83.7922C133.23 83.9206 134.121 83.9537 134.527 83.8585C135.422 83.6472 136.018 83.0547 136.404 81.9941L136.54 81.6171L136.545 81.9486C136.545 82.3173 136.615 83.3447 136.652 83.614L136.677 83.7922H137.953V73.7663H137.278C136.905 73.7663 136.586 73.7787 136.574 73.7953ZM135.049 77.8264C135.778 78.0708 136.3 78.6715 136.478 79.4711C136.565 79.8564 136.565 80.5607 136.478 80.946C136.288 81.8077 135.704 82.4457 134.908 82.6529C134.577 82.7357 133.852 82.7357 133.557 82.6487C132.758 82.4084 132.182 81.8077 131.958 80.9708C131.863 80.6104 131.863 79.8067 131.958 79.4462C132.083 78.9905 132.269 78.6632 132.588 78.3401C133.069 77.8595 133.533 77.6896 134.328 77.7186C134.651 77.7311 134.862 77.7601 135.049 77.8264Z" fill="white"/>
<path d="M194.918 83.7922H196.285V79.4918L196.459 79.148C196.841 78.3815 197.603 77.8637 198.44 77.7974C198.804 77.7684 199.235 77.8346 199.525 77.9589C199.823 78.0874 200.118 78.4271 200.221 78.7668C200.3 79.0237 200.304 79.1438 200.304 81.4141V83.7922H201.717L201.7 81.149C201.688 78.2282 201.696 78.3525 201.406 77.7642C201.211 77.3748 200.839 76.9978 200.449 76.8113C200.064 76.6208 199.749 76.5421 199.248 76.5131C197.967 76.4385 196.903 77.1179 196.414 78.3277L196.29 78.6342L196.285 76.1982V73.7663H194.918V83.7922Z" fill="white"/>
<path d="M238.618 76.1775L238.605 78.5928L238.473 78.2199C238.079 77.1345 237.334 76.5918 236.136 76.513C234.425 76.4053 233.087 77.4286 232.652 79.1852C232.536 79.6534 232.524 80.7015 232.631 81.1697C232.95 82.5534 233.845 83.5187 235.105 83.8377C235.569 83.9537 236.435 83.933 236.82 83.7963C237.636 83.5063 238.154 82.9014 238.527 81.8036L238.605 81.5757L238.63 82.4043C238.647 82.86 238.672 83.3572 238.688 83.5104L238.721 83.7922H239.993V73.7663H238.626L238.618 76.1775ZM236.865 77.7642C237.706 77.9423 238.295 78.5389 238.531 79.4421C238.622 79.8067 238.622 80.6104 238.527 80.975C238.291 81.8823 237.694 82.5037 236.894 82.6694C236.58 82.7357 235.908 82.7274 235.623 82.6528C234.906 82.4664 234.334 81.9154 234.065 81.1531C233.94 80.8051 233.907 79.9434 234.003 79.5084C234.16 78.7999 234.607 78.2075 235.192 77.9299C235.668 77.7062 236.294 77.6441 236.865 77.7642Z" fill="white"/>
<path d="M47.6788 83.7922H54.5561V82.5493H49.0874V74.512H47.6788V83.7922Z" fill="white"/>
<path d="M151.749 83.7922H159.165V82.5493H153.116V79.7735H158.046V78.5307H153.116V75.7549H159.123V74.512H151.749V83.7922Z" fill="white"/>
<path d="M97.5596 76.6249H95.9439V77.8678H97.5596V83.7922H98.9682V77.8678H100.584V76.6249H98.9682V74.7606H97.5596V76.6249Z" fill="white"/>
<path d="M58.3469 76.5586C57.0004 76.8238 56.0102 77.7849 55.6498 79.1728C55.5587 79.5208 55.5421 79.6824 55.538 80.1878C55.5338 80.8051 55.5711 81.0744 55.7244 81.555C56.089 82.6943 56.9755 83.556 58.0651 83.8336C58.4629 83.9372 59.2293 83.9454 59.5897 83.8543C60.4929 83.6181 61.0646 83.034 61.4582 81.9527L61.5949 81.5757L61.599 82.1143C61.599 82.6197 61.657 83.4897 61.7026 83.6969C61.7233 83.7922 61.7358 83.7922 62.3448 83.7922H62.9662V76.6249H61.599L61.5908 78.5928L61.4748 78.2489C61.309 77.7725 61.1309 77.4783 60.816 77.1593C60.3727 76.7202 59.9212 76.5503 59.1133 76.5213C58.8067 76.5089 58.5333 76.5213 58.3469 76.5586ZM59.8383 77.7642C60.6752 77.9423 61.2635 78.5224 61.5038 79.4048C61.6032 79.7694 61.6032 80.6435 61.5038 81.0123C61.2718 81.8616 60.6959 82.4664 59.9377 82.6528C59.5317 82.7523 58.7322 82.7233 58.4131 82.599C57.8953 82.396 57.4644 82.0066 57.2117 81.5136C56.9755 81.0454 56.9383 80.8714 56.9383 80.1878C56.9424 79.641 56.9507 79.5581 57.0584 79.2557C57.2738 78.6342 57.6798 78.1578 58.1894 77.9216C58.6451 77.7104 59.2914 77.6482 59.8383 77.7642Z" fill="white"/>
<path d="M76.5799 76.5462C75.2334 76.7451 74.1314 77.5571 73.6715 78.6881C73.2945 79.6203 73.2945 80.8383 73.6715 81.7704C74.09 82.802 75.0014 83.5312 76.2526 83.8419C76.7746 83.9703 77.7026 83.9703 78.2246 83.8419C79.252 83.585 80.0889 82.9967 80.5653 82.193C81.2572 81.0288 81.2158 79.235 80.4742 78.1247C80.0143 77.4328 79.368 76.9605 78.5229 76.6954C77.9387 76.5131 77.2013 76.4551 76.5799 76.5462ZM77.8517 77.7642C78.759 78.0004 79.4302 78.7212 79.6042 79.6493C79.687 80.0884 79.6622 80.714 79.542 81.0993C79.31 81.845 78.7425 82.4043 77.9843 82.6404C77.6404 82.7482 76.961 82.7689 76.5964 82.6777C75.685 82.454 75.0304 81.7787 74.8315 80.8507C74.7445 80.4447 74.7735 79.7404 74.8937 79.3592C75.1381 78.5845 75.8051 77.9548 76.5799 77.7684C76.9072 77.6896 77.5576 77.6855 77.8517 77.7642Z" fill="white"/>
<path d="M85.7357 76.5669C85.0148 76.7409 84.3893 77.3375 84.0537 78.1661C83.9874 78.3401 83.9252 78.5058 83.9211 78.5389C83.917 78.5679 83.9004 78.1537 83.888 77.6192L83.8673 76.6456L83.1754 76.6332L82.4794 76.6249V83.7922H83.888V79.6658L84.0288 79.38C84.3685 78.6715 84.9361 78.1619 85.5866 77.9755C85.7108 77.9424 85.9221 77.9009 86.0547 77.8844L86.2909 77.8595V76.5006L86.1376 76.5048C86.0506 76.5048 85.8724 76.5338 85.7357 76.5669Z" fill="white"/>
<path d="M89.9988 76.5586C88.5819 76.8403 87.5876 77.8636 87.2603 79.3758C87.1692 79.7901 87.1733 80.6518 87.2645 81.0993C87.5337 82.4167 88.354 83.382 89.5638 83.7922C89.9325 83.9206 90.8274 83.9537 91.2334 83.8585C92.1283 83.6472 92.7497 83.0092 93.1308 81.9071L93.2468 81.5757L93.251 82.0729C93.251 82.5369 93.3048 83.353 93.3587 83.6554L93.3794 83.7922H94.6596L94.6513 80.2168L94.6389 76.6456L93.947 76.6332L93.251 76.6249L93.2468 77.6275V78.6342L93.1723 78.3732C92.9941 77.7601 92.5923 77.1759 92.1407 76.8735C91.8134 76.6581 91.3535 76.5379 90.7859 76.5172C90.4628 76.5089 90.1852 76.5213 89.9988 76.5586ZM91.4985 77.7684C92.584 77.9921 93.251 78.9201 93.251 80.2085C93.251 81.4431 92.6171 82.3919 91.6145 82.6529C91.3038 82.7316 90.5705 82.7357 90.2722 82.6529C89.5389 82.4581 88.9299 81.8616 88.6896 81.0993C88.5695 80.714 88.5405 80.0553 88.6275 79.6078C88.7642 78.8787 89.2158 78.2324 89.7833 77.9506C90.2722 77.7104 90.9019 77.6441 91.4985 77.7684Z" fill="white"/>
<path d="M104.586 76.5462C103.24 76.7451 102.138 77.5571 101.678 78.6881C101.301 79.6203 101.301 80.8383 101.678 81.7704C102.096 82.802 103.008 83.5312 104.259 83.8419C104.781 83.9703 105.709 83.9703 106.231 83.8419C107.258 83.585 108.095 82.9967 108.571 82.193C109.263 81.0288 109.222 79.235 108.48 78.1247C108.02 77.4328 107.374 76.9605 106.529 76.6954C105.945 76.5131 105.207 76.4551 104.586 76.5462ZM105.858 77.7642C106.765 78.0004 107.436 78.7212 107.61 79.6493C107.693 80.0884 107.668 80.714 107.548 81.0993C107.316 81.845 106.749 82.4043 105.99 82.6404C105.647 82.7482 104.967 82.7689 104.603 82.6777C103.691 82.454 103.037 81.7787 102.838 80.8507C102.751 80.4447 102.78 79.7404 102.9 79.3592C103.144 78.5845 103.811 77.9548 104.586 77.7684C104.913 77.6896 105.564 77.6855 105.858 77.7642Z" fill="white"/>
<path d="M113.742 76.5669C113.021 76.7409 112.395 77.3375 112.06 78.1661C111.994 78.3401 111.931 78.5058 111.927 78.5389C111.923 78.5679 111.907 78.1537 111.894 77.6192L111.873 76.6456L111.182 76.6332L110.486 76.6249V83.7922H111.894V79.6658L112.035 79.38C112.375 78.6715 112.942 78.1619 113.593 77.9755C113.717 77.9424 113.928 77.9009 114.061 77.8844L114.297 77.8595V76.5006L114.144 76.5048C114.057 76.5048 113.879 76.5338 113.742 76.5669Z" fill="white"/>
<path d="M121.821 76.542C120.333 76.7782 119.223 77.6565 118.813 78.9284C118.581 79.6534 118.548 80.511 118.73 81.2525C119.074 82.6736 120.213 83.6554 121.796 83.8957C122.293 83.9744 122.624 83.9745 123.121 83.8999C124.621 83.672 125.723 82.7564 126.129 81.41C126.278 80.9128 126.316 79.989 126.212 79.4255C125.885 77.6896 124.501 76.5752 122.604 76.5213C122.309 76.513 121.953 76.5213 121.821 76.542ZM123.076 77.7642C123.909 77.9631 124.605 78.6674 124.803 79.5084C124.895 79.8937 124.89 80.6228 124.799 80.975C124.629 81.6337 124.186 82.1971 123.614 82.4789C122.877 82.8434 122.024 82.8393 121.27 82.4664C120.648 82.1598 120.184 81.5467 120.052 80.859C119.973 80.4405 120.023 79.6078 120.147 79.2681C120.424 78.5182 121.058 77.9548 121.821 77.7683C122.144 77.6896 122.749 77.6896 123.076 77.7642Z" fill="white"/>
<path d="M142.883 76.5255C142.307 76.6001 141.591 76.8735 141.114 77.1966C140.812 77.3996 140.344 77.9009 140.153 78.2116C139.556 79.2101 139.457 80.569 139.9 81.7083C140.199 82.4913 140.808 83.1334 141.611 83.5229C142.27 83.8419 143.032 83.991 143.761 83.9413C144.549 83.8916 145.079 83.7259 145.646 83.3489C146.264 82.9429 146.67 82.3421 146.836 81.584L146.86 81.4721H145.555L145.435 81.7207C145.232 82.1474 144.756 82.5161 144.23 82.6611C144.118 82.6901 143.865 82.7274 143.67 82.7399C142.606 82.8103 141.698 82.3131 141.276 81.4307C141.135 81.1324 141.019 80.7595 141.019 80.6021C141.019 80.5773 142.129 80.5607 143.964 80.5607H146.914L146.889 79.9061C146.865 79.1314 146.773 78.7295 146.508 78.1785C145.982 77.0931 145.05 76.5586 143.608 76.5213C143.289 76.513 142.962 76.5172 142.883 76.5255ZM144.01 77.7476C144.259 77.8015 144.636 77.9755 144.851 78.1412C145.158 78.3732 145.419 78.8455 145.477 79.2722L145.506 79.4835H143.302C141.272 79.4835 141.102 79.4794 141.102 79.4131C141.102 79.3758 141.18 79.1852 141.272 78.9905C141.566 78.3815 142.133 77.9175 142.771 77.7601C143.045 77.6938 143.724 77.6896 144.01 77.7476Z" fill="white"/>
<path d="M164.613 76.5255C164.033 76.6166 163.411 76.9439 163.026 77.3665C162.806 77.6026 162.525 78.0501 162.417 78.3318L162.318 78.5928L162.293 76.6456L161.601 76.6332L160.905 76.6249V83.7922H162.313V81.6213C162.313 79.177 162.297 79.3344 162.641 78.8248C163.15 78.0749 164.074 77.6689 165.006 77.7891C165.549 77.8554 165.885 78.0501 166.108 78.4271C166.316 78.7834 166.332 78.9822 166.332 81.4804V83.7922H167.703L167.679 78.4685L167.563 78.1371C167.277 77.3334 166.726 76.8238 165.897 76.6042C165.649 76.5379 164.849 76.4882 164.613 76.5255Z" fill="white"/>
<path d="M171.714 76.5669C170.442 76.7948 169.51 77.6316 169.232 78.7834C169.129 79.2184 169.12 79.9392 169.216 80.366C169.402 81.2028 169.965 81.9196 170.732 82.2924C170.91 82.3753 171.051 82.4581 171.055 82.4747C171.055 82.4954 170.968 82.5079 170.86 82.5079C170.409 82.5079 169.866 82.7109 169.617 82.9719C169.228 83.3779 169.253 84.1526 169.671 84.5379C169.87 84.7202 170.007 84.7906 170.38 84.8983C170.57 84.9522 170.922 84.9687 172.091 84.9936C173.715 85.0267 173.835 85.0433 174.171 85.296C174.444 85.499 174.572 85.7932 174.606 86.2903L174.63 86.6922H175.985V86.1992C175.985 85.3623 175.865 84.9688 175.484 84.5627C175.186 84.2437 174.875 84.0697 174.34 83.9289C173.951 83.8253 173.868 83.8212 172.497 83.7963C171.125 83.7714 171.055 83.7673 170.943 83.6844C170.566 83.4069 170.715 82.9511 171.225 82.8186C171.349 82.7854 171.701 82.7357 172.008 82.715C172.982 82.6363 173.305 82.5907 173.686 82.4623C174.597 82.1598 175.256 81.5011 175.529 80.6228C175.658 80.221 175.687 79.4504 175.596 79.0527C175.467 78.5058 175.103 77.9341 174.684 77.6234C174.581 77.5446 174.498 77.4742 174.506 77.4701C174.51 77.4618 174.688 77.5239 174.9 77.6026C175.389 77.7849 175.886 77.9009 176.254 77.9175L176.544 77.9299V76.6456L174.846 76.6208C173.885 76.6083 173.056 76.5752 172.94 76.5503C172.658 76.4882 172.095 76.4965 171.714 76.5669ZM172.944 77.7601C173.404 77.8802 173.872 78.2489 174.075 78.6467C174.274 79.0361 174.34 79.6327 174.241 80.1133C174.104 80.7554 173.595 81.2774 172.94 81.4514C171.776 81.7538 170.641 81.0413 170.521 79.9351C170.405 78.8621 170.869 78.0791 171.792 77.7808C172.078 77.6896 172.642 77.6772 172.944 77.7601Z" fill="white"/>
<path d="M180.729 76.5296C179.378 76.7036 178.338 77.4079 177.812 78.5016C177.58 78.9822 177.477 79.4131 177.448 80.0055C177.39 81.1987 177.709 82.0853 178.467 82.8434C178.869 83.2453 179.237 83.4814 179.755 83.6679C180.335 83.8833 180.625 83.9289 181.329 83.9289C182.113 83.933 182.519 83.846 183.111 83.556C183.438 83.3944 183.563 83.2991 183.857 83.0091C184.23 82.6321 184.408 82.3504 184.557 81.8906C184.702 81.4431 184.739 81.4721 184.002 81.4721H183.364L183.26 81.6876C183.115 81.99 182.945 82.1806 182.651 82.3794C182.258 82.6404 181.905 82.7357 181.309 82.7316C180.741 82.7316 180.484 82.6736 180.033 82.4333C179.465 82.1391 179.001 81.5094 178.869 80.8507L178.815 80.5814L184.706 80.54L184.718 80.2914C184.739 79.9517 184.66 79.2225 184.561 78.8331C184.242 77.5695 183.331 76.7616 181.997 76.5628C181.628 76.5048 181.027 76.4923 180.729 76.5296ZM181.881 77.7642C182.208 77.8512 182.477 77.9921 182.726 78.2158C183.041 78.5016 183.202 78.8165 183.293 79.3468L183.318 79.4835H178.881L178.906 79.3882C178.918 79.3385 179.005 79.1479 179.092 78.9657C179.374 78.3815 179.946 77.9175 180.567 77.7684C180.894 77.6896 181.582 77.6855 181.881 77.7642Z" fill="white"/>
<path d="M189.677 76.5628C189.52 76.6001 189.23 76.7036 189.035 76.7989C188.43 77.0931 187.871 77.7311 187.627 78.4146L187.548 78.6342L187.544 77.6275V76.6249L186.852 76.6332L186.156 76.6456L186.144 80.2168L186.135 83.7922H187.544V79.4628L187.672 79.1935C187.966 78.5721 188.517 78.0791 189.16 77.8719C189.615 77.7269 190.39 77.7435 190.767 77.9092C191.144 78.0749 191.418 78.4395 191.517 78.8952C191.546 79.0444 191.563 79.8812 191.563 81.4514V83.7922H192.975L192.963 81.2111C192.946 78.7171 192.942 78.6259 192.855 78.3111C192.607 77.4204 192.018 76.8403 191.128 76.6001C190.767 76.5048 190.034 76.4882 189.677 76.5628Z" fill="white"/>
<path d="M205.926 76.5628C205.338 76.6746 204.754 76.9688 204.294 77.3872C203.121 78.4478 202.782 80.4613 203.515 82.0066C203.917 82.8559 204.613 83.4856 205.462 83.7756C205.74 83.8709 205.88 83.8916 206.357 83.9082C207.281 83.9372 207.757 83.7632 208.321 83.1956C208.594 82.9221 208.689 82.7854 208.847 82.4664C208.955 82.251 209.075 81.961 209.116 81.8243L209.191 81.5757L209.22 82.4043C209.236 82.86 209.265 83.353 209.282 83.5022L209.315 83.7715L210.579 83.7963V76.6249H209.211V77.6275L209.207 78.6342L209.071 78.2324C208.772 77.3499 208.238 76.8155 207.442 76.6001C207.094 76.5089 206.32 76.4882 205.926 76.5628ZM207.451 77.7642C208.279 77.9382 208.872 78.5224 209.112 79.4048C209.211 79.7735 209.211 80.6435 209.112 81.0123C208.884 81.8491 208.325 82.4499 207.6 82.6404C207.248 82.7316 206.539 82.7357 206.216 82.6529C205.499 82.4664 204.932 81.9237 204.667 81.1821C204.526 80.7803 204.488 80.0055 204.588 79.5291C204.737 78.8207 205.193 78.2075 205.777 77.9299C206.253 77.7062 206.879 77.6441 207.451 77.7642Z" fill="white"/>
<path d="M215.799 76.5296C214.97 76.6664 214.299 77.2919 213.914 78.2779L213.773 78.6342L213.769 77.6275V76.6249H212.401V83.7922H213.769V79.6948L213.959 79.322C214.382 78.4934 215.094 77.9755 215.935 77.8885L216.213 77.8595V76.5006L216.06 76.5048C215.973 76.5089 215.857 76.5213 215.799 76.5296Z" fill="white"/>
<path d="M223.409 76.5421C223.119 76.5918 222.643 76.7451 222.448 76.8403C221.599 77.2753 220.965 78.0584 220.658 79.0568C220.555 79.4007 220.546 79.4669 220.546 80.2292C220.546 80.9915 220.555 81.0578 220.658 81.4017C221.052 82.6819 221.909 83.5436 223.086 83.8377C223.38 83.9123 223.521 83.9206 223.977 83.9082C224.644 83.8833 224.959 83.788 225.385 83.4856C225.874 83.1334 226.235 82.5949 226.471 81.8698L226.566 81.5757L226.57 82.0107C226.57 82.4209 226.62 83.1624 226.678 83.5933L226.703 83.7922H227.979L227.971 80.2168L227.958 76.6456L227.266 76.6332L226.57 76.6249V78.5928L226.433 78.1992C226.143 77.3541 225.597 76.8155 224.818 76.5959C224.557 76.5255 223.687 76.4923 223.409 76.5421ZM224.747 77.7435C225.613 77.8802 226.309 78.5804 226.508 79.5042C226.587 79.873 226.587 80.54 226.508 80.9128C226.421 81.3313 226.16 81.8326 225.891 82.1019C225.46 82.5327 224.971 82.715 224.25 82.715C223.517 82.715 223.086 82.5452 222.61 82.0729C222.295 81.7621 222.075 81.3727 221.967 80.9335C221.893 80.6435 221.893 79.7818 221.967 79.4835C222.121 78.8497 222.593 78.2158 223.098 77.9589C223.554 77.7269 224.142 77.6524 224.747 77.7435Z" fill="white"/>
<path d="M244.778 76.5586C243.324 76.7865 242.259 77.7021 241.833 79.0899C241.725 79.4379 241.717 79.5084 241.717 80.2292C241.717 80.946 241.725 81.0205 241.829 81.3603C242.027 82.0024 242.297 82.4457 242.752 82.8849C243.1 83.2163 243.345 83.3861 243.739 83.5643C244.662 83.9952 245.901 84.0656 246.883 83.7507C247.803 83.4566 248.482 82.8103 248.78 81.9527C248.963 81.4348 249.008 81.4721 248.25 81.4721H247.596L247.496 81.7C247.388 81.9568 247.09 82.28 246.821 82.4374C246.452 82.6528 246.146 82.7274 245.607 82.7316C244.874 82.7398 244.422 82.5948 243.925 82.2013C243.531 81.8905 243.163 81.2401 243.088 80.714L243.063 80.5607H248.934L248.959 80.3618C248.975 80.2541 248.967 79.9517 248.946 79.6907C248.847 78.6135 248.507 77.8181 247.915 77.2878C247.645 77.0475 247.053 76.7368 246.684 76.6456C246.071 76.4965 245.392 76.4633 244.778 76.5586ZM246.125 77.7683C246.44 77.8388 246.808 78.0418 247.049 78.2738C247.264 78.4809 247.488 78.9491 247.521 79.2474L247.546 79.4835H243.142L243.167 79.3675C243.312 78.7875 243.859 78.1453 244.426 77.9009C244.886 77.7021 245.59 77.6441 246.125 77.7683Z" fill="white"/>
<path d="M115.664 83.7922H117.031V76.6249H115.664V83.7922Z" fill="white"/>
<path d="M217.58 83.7922H218.947V76.6249H217.58V83.7922Z" fill="white"/>
<path d="M132.65 92.368H134.349V90.8766H132.65V92.368Z" fill="white"/>
<path d="M67.4281 91.005C66.8109 91.0837 66.2184 91.3696 65.9325 91.7217C65.6011 92.1277 65.4644 92.571 65.423 93.3499L65.3981 93.8595H64.0434V95.0609H65.4105V100.985H66.8191V95.0609H68.7663V93.8595H66.8108L66.8274 93.412C66.844 92.9273 66.9103 92.7367 67.1381 92.5296C67.3909 92.2934 67.4903 92.2644 68.2194 92.252L68.8906 92.2354V90.9594L68.3023 90.9636C67.975 90.9677 67.5814 90.9843 67.4281 91.005Z" fill="white"/>
<path d="M49.916 91.585C49.5556 91.6388 48.8968 91.8667 48.6027 92.0407C48.4701 92.1194 48.2298 92.31 48.0683 92.4716C47.596 92.9356 47.3888 93.4327 47.3888 94.0832C47.393 94.7419 47.5338 95.1106 47.9564 95.5622C48.5406 96.1795 49.3567 96.5689 50.8772 96.9459C52.3023 97.3022 52.7788 97.5425 52.9818 98.0107C53.0605 98.1888 53.0729 98.2799 53.0563 98.5409C53.0149 99.2038 52.5675 99.6637 51.801 99.8294C51.4116 99.9122 50.5416 99.8915 50.1521 99.788C49.249 99.5477 48.5944 98.9304 48.4245 98.1556L48.3707 97.9195H47.0574V98.1639C47.0574 98.7854 47.4758 99.6015 48.0807 100.157C48.8927 100.898 50.1563 101.25 51.5566 101.118C53.1019 100.973 53.9802 100.401 54.3365 99.3074C54.4235 99.034 54.4442 98.8931 54.4442 98.5202C54.4484 97.7662 54.2826 97.3188 53.8311 96.8631C53.3753 96.4032 52.7332 96.1008 51.5317 95.7859C49.7171 95.3053 49.0501 94.9946 48.8471 94.5265C48.7518 94.311 48.7643 93.8429 48.8678 93.6109C49.0336 93.2339 49.4354 92.9687 50.0444 92.8403C50.4132 92.7616 51.2376 92.7823 51.5359 92.8776C52.294 93.122 52.6835 93.5736 52.7663 94.2944L52.7953 94.543L54.1128 94.5679L54.0879 94.1826C54.0424 93.4534 53.7979 92.8941 53.3132 92.4094C52.9486 92.0407 52.5095 91.8004 51.946 91.6596C51.54 91.5601 50.3759 91.5145 49.916 91.585Z" fill="white"/>
<path d="M126.788 91.5684C126.253 91.643 125.578 91.8833 125.209 92.136C124.215 92.8113 123.846 94.0583 124.352 95.0651C124.638 95.6368 125.305 96.1546 126.208 96.5068C126.606 96.6642 126.821 96.7305 128.072 97.062C128.371 97.1448 128.719 97.2484 128.847 97.2981C129.216 97.4348 129.568 97.6917 129.7 97.9112C129.8 98.0853 129.812 98.1474 129.808 98.4581C129.808 98.7357 129.787 98.8517 129.717 98.9967C129.576 99.2867 129.406 99.469 129.137 99.6098C128.743 99.8211 128.441 99.8833 127.803 99.8791C126.9 99.875 126.291 99.6637 125.76 99.1666C125.45 98.8724 125.214 98.454 125.168 98.1101L125.139 97.9195L124.472 97.9278L123.805 97.9403L123.813 98.193C123.826 98.5203 123.987 99.0257 124.186 99.3696C124.522 99.9413 125.222 100.55 125.827 100.791C126.775 101.172 128.11 101.25 129.149 100.985C130.454 100.658 131.2 99.7549 131.2 98.4995C131.196 97.4638 130.782 96.8009 129.825 96.3204C129.398 96.1049 129.05 95.9848 128.217 95.7652C126.875 95.4131 126.195 95.1521 125.86 94.8703C125.462 94.5389 125.421 93.7808 125.769 93.3582C125.934 93.1593 126.382 92.9315 126.784 92.8445C127.215 92.7492 127.948 92.7782 128.35 92.9025C128.677 93.006 129.033 93.238 129.207 93.4576C129.369 93.6606 129.497 94.0086 129.531 94.3193L129.555 94.5638H130.881L130.856 94.2199C130.786 93.2629 130.33 92.4716 129.601 92.0283C129.29 91.8377 128.71 91.643 128.288 91.585C127.981 91.5436 127.057 91.5312 126.788 91.5684Z" fill="white"/>
<path d="M71.0863 93.818H69.4706V95.0195H71.0863V100.985H72.4949V95.0195H74.1107V93.818H72.4949V91.9537H71.0863V93.818Z" fill="white"/>
<path d="M144.167 93.818H142.51V95.0195L143.331 95.0278L144.147 95.0402L144.159 98.0107L144.167 100.985H145.535V95.0195H147.196L147.171 93.8387L146.355 93.8263L145.535 93.818V91.9537H144.167V93.818Z" fill="white"/>
<path d="M58.6742 93.7559C57.7544 93.9216 57.0874 94.2655 56.5198 94.8621C55.8528 95.5664 55.5752 96.3287 55.5794 97.4638C55.5835 98.1515 55.6871 98.6487 55.9233 99.1251C56.4287 100.128 57.2324 100.737 58.4463 101.035C58.8689 101.139 59.7927 101.159 60.2277 101.072C61.7565 100.77 62.8461 99.7424 63.1568 98.3131C63.2521 97.8698 63.2521 96.9832 63.1527 96.5317C62.7839 94.8041 61.2759 93.6772 59.3494 93.6979C59.1382 93.6979 58.8357 93.7269 58.6742 93.7559ZM60.0413 94.9574C60.6006 95.1024 61.1226 95.4752 61.4292 95.9434C61.7399 96.4198 61.8808 97.0205 61.8311 97.6503C61.7938 98.0977 61.7399 98.3007 61.5659 98.6653C60.8782 100.086 58.786 100.385 57.6426 99.2287C57.162 98.744 56.959 98.2137 56.959 97.4224C56.959 96.6187 57.1578 96.1049 57.6633 95.5995C57.9947 95.2639 58.2723 95.0982 58.7114 94.9739C59.0429 94.8786 59.7099 94.8704 60.0413 94.9574Z" fill="white"/>
<path d="M89.7626 93.7352C88.7103 93.9257 87.8155 94.5803 87.3349 95.5083C86.4524 97.2111 86.8957 99.4648 88.3209 100.509C88.8471 100.894 89.3608 101.068 90.0651 101.097C90.9972 101.139 91.5068 100.956 92.0703 100.389C92.4307 100.028 92.6544 99.643 92.845 99.0588L92.9403 98.7688L92.9693 99.5767C92.9858 100.02 93.0148 100.513 93.0314 100.675L93.0645 100.965L94.3281 100.989V93.818H92.961L92.9568 94.8206V95.8273L92.8326 95.4586C92.6834 95.0029 92.5218 94.717 92.2525 94.4229C91.8134 93.9382 91.2997 93.7352 90.4752 93.7145C90.1894 93.7062 89.8704 93.7145 89.7626 93.7352ZM91.2002 94.9573C92.0371 95.1355 92.6213 95.7113 92.8615 96.5938C92.961 96.9666 92.961 97.8367 92.8615 98.2054C92.6254 99.0754 92.0081 99.701 91.2292 99.8625C90.8812 99.933 90.2432 99.9206 89.9284 99.8294C89.2282 99.6388 88.6565 99.0754 88.4038 98.3338C88.2753 97.9692 88.2422 97.1614 88.3375 96.7222C88.528 95.8273 89.1785 95.1355 89.9946 94.9573C90.3344 94.8828 90.8481 94.8828 91.2002 94.9573Z" fill="white"/>
<path d="M99.3949 93.7559C98.6533 93.9175 98.0278 94.5389 97.6632 95.4628L97.5223 95.8273L97.5182 94.8206V93.818H96.151V100.985H97.5182V96.8879L97.7088 96.5151C98.1355 95.6782 98.8398 95.1686 99.6849 95.0816L99.9625 95.0526V93.6937L99.8092 93.6979C99.7222 93.6979 99.5358 93.7269 99.3949 93.7559Z" fill="white"/>
<path d="M103.865 93.7559C101.947 94.0956 100.741 95.6451 100.845 97.6461C100.944 99.5767 102.249 100.894 104.271 101.114C104.797 101.172 105.423 101.122 105.908 100.985C106.902 100.708 107.71 99.9454 107.975 99.0423C108.091 98.6404 108.128 98.6653 107.403 98.6653H106.765L106.662 98.8807C106.508 99.1873 106.343 99.3778 106.048 99.5726C105.386 100.016 104.333 100.061 103.538 99.6844C103.132 99.4897 102.684 99.0547 102.494 98.6653C102.353 98.3711 102.241 98.0107 102.241 97.8242V97.7124H108.124V97.3685C108.124 95.4504 107.287 94.1909 105.763 93.818C105.294 93.702 104.35 93.673 103.865 93.7559ZM105.278 94.9574C105.792 95.0899 106.26 95.4379 106.483 95.8481C106.575 96.0097 106.711 96.4902 106.715 96.6435C106.715 96.6642 105.721 96.6767 104.503 96.6767H102.291L102.332 96.5192C102.465 96.0262 102.962 95.4214 103.438 95.1686C103.596 95.0858 103.832 94.9946 103.965 94.9615C104.292 94.8828 104.98 94.8786 105.278 94.9574Z" fill="white"/>
<path d="M115.478 93.7393C115.146 93.7849 114.583 93.963 114.276 94.1163C113.477 94.5182 112.872 95.1976 112.578 96.0304C112.387 96.5607 112.333 96.9377 112.362 97.6171C112.4 98.6818 112.719 99.4193 113.439 100.099C113.937 100.571 114.546 100.886 115.308 101.056C115.714 101.147 116.741 101.147 117.139 101.056C118.026 100.853 118.701 100.422 119.115 99.7921C119.31 99.498 119.492 99.0795 119.538 98.8185L119.567 98.6653H118.254L118.175 98.8641C118.067 99.1293 117.62 99.5643 117.301 99.7175C116.928 99.8957 116.402 99.9744 115.913 99.9206C115.13 99.8294 114.541 99.4938 114.148 98.9055C113.945 98.6031 113.796 98.2178 113.738 97.8657L113.713 97.7124H119.588L119.612 97.5342C119.629 97.4348 119.621 97.1407 119.6 96.8797C119.451 95.0651 118.56 94.021 116.936 93.7559C116.526 93.6896 115.88 93.6813 115.478 93.7393ZM116.803 94.9573C117.537 95.1479 118.1 95.7569 118.175 96.4364L118.204 96.6766H113.792L113.821 96.5607C113.833 96.4985 113.916 96.3121 113.999 96.1422C114.272 95.5788 114.836 95.1231 115.457 94.9615C115.764 94.8786 116.493 94.8786 116.803 94.9573Z" fill="white"/>
<path d="M138.127 93.7393C137.783 93.7973 137.294 93.9755 137.038 94.1287C136.719 94.3276 136.4 94.6756 136.242 95.007C136.13 95.2473 136.109 95.3468 136.097 95.6906C136.072 96.3079 136.205 96.6394 136.644 97.0412C137.054 97.4141 137.531 97.6129 139.217 98.1225C139.975 98.3504 140.228 98.6155 140.178 99.1168C140.145 99.4358 139.991 99.6471 139.672 99.8045C139.432 99.9247 139.403 99.9288 138.865 99.9288C138.243 99.9288 138.028 99.8791 137.688 99.6513C137.448 99.4938 137.187 99.1375 137.12 98.8682L137.067 98.6652H135.799V98.8434C135.799 99.4855 136.25 100.219 136.905 100.641C137.439 100.989 138.351 101.188 139.167 101.134C139.983 101.076 140.634 100.828 141.031 100.409C141.408 100.016 141.557 99.6347 141.557 99.0547C141.557 98.2551 141.23 97.7662 140.422 97.3851C140.24 97.2939 139.672 97.0826 139.167 96.9086C138.123 96.5565 137.812 96.4115 137.63 96.2043C137.245 95.7652 137.56 95.0775 138.206 94.9408C138.508 94.8745 139.063 94.8869 139.316 94.9615C139.693 95.0733 140.004 95.4503 140.087 95.8978L140.116 96.0552H141.309V95.8563C141.309 95.3426 141.023 94.6922 140.642 94.34C140.174 93.905 139.693 93.7352 138.885 93.7144C138.591 93.7062 138.247 93.7145 138.127 93.7393Z" fill="white"/>
<path d="M151.02 93.76C150.121 93.9092 149.292 94.3856 148.762 95.0485C148.286 95.6451 148.037 96.3411 147.991 97.1987C147.892 99.0506 148.915 100.496 150.676 100.985C151.977 101.346 153.473 101.068 154.301 100.31C154.74 99.9123 155.097 99.3074 155.171 98.8393L155.2 98.6653H153.912L153.796 98.9014C153.555 99.3986 153.017 99.7756 152.387 99.8874C151.455 100.053 150.606 99.8087 150.038 99.208C149.665 98.8103 149.392 98.2303 149.388 97.8242V97.7124H155.271V97.3685C155.271 96.5814 155.105 95.8315 154.802 95.2474C154.587 94.8331 154.127 94.3525 153.738 94.137C153.025 93.7476 151.964 93.5985 151.02 93.76ZM152.424 94.9574C152.938 95.0899 153.406 95.4379 153.63 95.8481C153.721 96.0097 153.858 96.4902 153.862 96.6435C153.862 96.6642 152.863 96.6767 151.641 96.6767H149.425L149.45 96.5814C149.466 96.5317 149.541 96.3535 149.62 96.1878C149.889 95.6078 150.494 95.1106 151.111 94.9615C151.438 94.8828 152.126 94.8786 152.424 94.9574Z" fill="white"/>
<path d="M160.221 93.7559C159.36 93.934 158.519 94.6715 158.204 95.5332L158.108 95.7859L158.096 94.7999L158.088 93.818L157.392 93.8263L156.7 93.8387L156.687 97.4099L156.679 100.985H158.088V96.6559L158.191 96.4322C158.626 95.5001 159.459 94.9615 160.47 94.9615C161.298 94.9615 161.733 95.2142 162.007 95.8481C162.081 96.0262 162.086 96.1712 162.098 98.5078L162.11 100.985H163.515V96.3162L163.672 96.0718C164.19 95.2805 165.139 94.8455 166.071 94.9781C166.655 95.0568 167.007 95.2805 167.219 95.7031C167.393 96.0552 167.409 96.3121 167.409 98.715V100.985H168.781L168.768 98.3628C168.756 96.0138 168.747 95.7196 168.681 95.5001C168.553 95.065 168.366 94.7378 168.085 94.4353C167.654 93.9796 167.119 93.7559 166.332 93.7062C165.135 93.6316 164.12 94.2199 163.598 95.2805L163.44 95.6036L163.353 95.3385C163.092 94.5638 162.512 94.0169 161.709 93.7973C161.361 93.702 160.582 93.6813 160.221 93.7559Z" fill="white"/>
<path d="M173.085 93.7393C171.78 93.9672 170.786 94.8869 170.363 96.2499C170.26 96.5897 170.251 96.6642 170.251 97.4017C170.247 98.0355 170.264 98.2427 170.326 98.4581C170.703 99.8211 171.556 100.716 172.77 101.027C173.185 101.13 173.893 101.139 174.282 101.043C175.181 100.82 175.824 100.144 176.176 99.0588L176.271 98.7688L176.275 99.2038C176.275 99.6181 176.329 100.426 176.383 100.807L176.404 100.985H177.684L177.675 97.41L177.663 93.8388L176.971 93.8263L176.275 93.818V95.7859L176.147 95.4131C175.985 94.9366 175.803 94.6425 175.48 94.3276C175.028 93.8968 174.61 93.7435 173.81 93.7145C173.537 93.7062 173.209 93.7145 173.085 93.7393ZM174.548 94.9573C175.177 95.0899 175.732 95.5249 176.006 96.1049C176.192 96.4985 176.275 96.8879 176.275 97.4017C176.275 98.193 176.06 98.7978 175.612 99.266C175.173 99.7176 174.688 99.9081 173.968 99.9081C173.255 99.9081 172.754 99.7134 172.294 99.2494C171.863 98.8186 171.656 98.3255 171.61 97.6088C171.519 96.2748 172.215 95.2018 173.334 94.9615C173.686 94.8828 174.195 94.8828 174.548 94.9573Z" fill="white"/>
<path d="M181.429 93.7518C181.027 93.8305 180.861 93.8843 180.526 94.0583C179.78 94.4436 179.382 95.1106 179.436 95.8895C179.465 96.3452 179.589 96.6311 179.896 96.9418C180.31 97.3644 180.87 97.6254 182.104 97.9858C182.809 98.1888 183.156 98.3297 183.314 98.4705C183.612 98.7481 183.592 99.3447 183.268 99.6471C182.908 99.9868 181.901 100.053 181.267 99.7838C180.907 99.6306 180.563 99.2245 180.459 98.8393L180.414 98.6653H179.134V98.7978C179.134 99.0257 179.25 99.44 179.386 99.7134C179.569 100.074 180.062 100.559 180.439 100.745C180.841 100.948 181.205 101.052 181.706 101.114C183.094 101.275 184.3 100.811 184.718 99.9496C184.967 99.44 184.984 98.744 184.76 98.2592C184.623 97.9734 184.263 97.6337 183.877 97.4348C183.695 97.3437 183.098 97.1117 182.552 96.9252C182.005 96.7388 181.45 96.5275 181.317 96.4571C180.907 96.2416 180.754 95.9682 180.836 95.6036C180.894 95.3385 181.052 95.1521 181.325 95.0236C181.537 94.9242 181.603 94.9159 182.096 94.9159C182.622 94.9159 182.639 94.92 182.862 95.0443C183.111 95.1852 183.326 95.4752 183.405 95.7859C183.426 95.8771 183.455 95.9765 183.463 96.0014C183.476 96.0428 183.641 96.0552 184.089 96.0552H184.694L184.665 95.7942C184.623 95.4462 184.466 94.9573 184.317 94.7212C184.047 94.2986 183.55 93.9465 183.007 93.7973C182.663 93.7062 181.806 93.6813 181.429 93.7518Z" fill="white"/>
<path d="M74.815 93.8678C74.8191 93.8968 75.4116 95.5042 76.1324 97.4431L77.4457 100.965H78.759L79.6373 98.2924C80.1221 96.8217 80.5281 95.5912 80.5364 95.5581C80.5612 95.4918 80.6441 95.7321 81.7129 99.0091L82.3592 100.989L83.6435 100.965L84.99 97.4224C85.7274 95.4752 86.3323 93.8678 86.3323 93.847C86.3323 93.8305 85.9926 93.8222 85.5824 93.8263L84.8326 93.8388L83.9087 96.5027C83.4033 97.9651 82.9807 99.1707 82.9683 99.1831C82.9517 99.2038 82.7818 98.6363 81.7047 94.9242L81.3857 93.818H79.7533L79.6912 94.0128C78.7756 97.1199 78.1459 99.1956 78.1252 99.1707C78.1003 99.1458 76.3064 93.876 76.3064 93.8346C76.3064 93.8263 75.9709 93.818 75.5607 93.818C74.989 93.818 74.815 93.8305 74.815 93.8678Z" fill="white"/>
<path d="M132.816 100.985H134.183V93.818H132.816V100.985Z" fill="white"/>
</svg>
